<svg id="Layer_1" data-name="Layer 1" xmlns="http://www.w3.org/2000/svg" viewBox="200 436 1525 350"><defs><style>.cls-1{fill:#fff;}</style></defs><path d="M1674.93,719.65c7.66,0,7.67-11.9,0-11.9s-7.68,11.9,0,11.9Z"/><path class="cls-1" d="M227.06,578.89l-16.68,0-.07-95H227Zm57.52,0H267.9l0-61.58q0-10.81-5-15.93t-15.34-5.1a17.34,17.34,0,0,0-11.5,3.84,22.5,22.5,0,0,0-6.79,10.34,44.38,44.38,0,0,0-2.2,14.36l-1.35-7.87a50.3,50.3,0,0,1,4.5-16.92,34,34,0,0,1,10.34-13.09q6.62-5,16.39-5,13.61,0,20.61,8.05t7,23.21Zm57.51,0H325.6l0-61.58q0-10.82-5-15.94t-15.34-5.1a17.66,17.66,0,0,0-11.69,3.85,22.4,22.4,0,0,0-6.8,10.33,44.22,44.22,0,0,0-2.19,14.37l-1.35-7.87A55.1,55.1,0,0,1,287.78,500,33.28,33.28,0,0,1,298,486.86q6.62-5,16.39-5,13.62,0,20.62,8.05t7,23.21Z"/><path class="cls-1" d="M445.81,578.73H435.07a19.53,19.53,0,0,1-8.53-1.76,12.69,12.69,0,0,1-5.85-5.7q-2.12-3.93-2.12-10.62l0-39.55-.58-2.56q0-9-4.32-15.24t-16-6.19q-10,0-16.58,5.23a35.24,35.24,0,0,0-10.25,13.09l-11.51-12a48.62,48.62,0,0,1,8.52-9.94,45.59,45.59,0,0,1,13.51-8.37,46.91,46.91,0,0,1,18.21-3.36q16.88,0,26,9.62t9.12,26.94l0,39c0,2.1.45,3.57,1.35,4.42a5.58,5.58,0,0,0,4,1.28h5.76Zm-59.63,2q-11.49,0-17.93-6.28a22.62,22.62,0,0,1-.11-31.48,58,58,0,0,1,16.28-11L421,515l2.31,11.61-32,15.56a34.59,34.59,0,0,0-9.58,6.31,10.6,10.6,0,0,0-3.06,7.67,9.49,9.49,0,0,0,3.26,7.67q3.27,2.76,9.78,2.75a30,30,0,0,0,10.83-1.88,25.29,25.29,0,0,0,8.44-5.22,24.89,24.89,0,0,0,5.55-7.68,22.6,22.6,0,0,0,2-9.64l.58,9.25a41.89,41.89,0,0,1-5,13.28,33.43,33.43,0,0,1-10.72,11.42Q396.54,580.74,386.18,580.74Z"/><path class="cls-1" d="M481.85,578.7H465.17l-.07-95h16.68Zm0-54.11-1.35-8.06a52.7,52.7,0,0,1,2.77-13,38.76,38.76,0,0,1,6-11.22,29.52,29.52,0,0,1,9.2-7.87,25,25,0,0,1,12.27-3,20.17,20.17,0,0,1,13.51,5.21q6,5.21,6,15.24a38.16,38.16,0,0,1-1.23,10.43,20.46,20.46,0,0,1-2.4,5.9l-18,0a16.35,16.35,0,0,0,3.83-6.11A21.54,21.54,0,0,0,514,504.3a11.63,11.63,0,0,0-2.21-7c-1.47-2-3.93-3.05-7.38-3a17.72,17.72,0,0,0-11.12,4.24,28.68,28.68,0,0,0-8.43,11.12A36.25,36.25,0,0,0,481.81,524.59Z"/><path class="cls-1" d="M573.71,617.19q-17.64,0-28.19-5.59t-10.55-15a13,13,0,0,1,2.29-7.77,22.42,22.42,0,0,1,5.75-5.61,28.67,28.67,0,0,1,6.9-3.55,13.83,13.83,0,0,1-6.62-4.91,13.48,13.48,0,0,1-2.4-8.07,18.79,18.79,0,0,1,1.72-7.77,33.51,33.51,0,0,1,5.17-7.88,62.76,62.76,0,0,1,8-7.77l4,1.76a36.71,36.71,0,0,0-3.54,5.61,14.39,14.39,0,0,0-1.82,6.79,7.13,7.13,0,0,0,2.5,5.81c1.66,1.37,4.86,2.06,9.59,2l28.18,0q12.65,0,20,5.1t7.39,15.93a25.17,25.17,0,0,1-5.65,16.14q-5.64,7.1-16.47,10.93T573.71,617.19Zm3.78-67.68a40.09,40.09,0,0,1-19.08-4.32,32.52,32.52,0,0,1-12.85-12.09,33.26,33.26,0,0,1-4.71-17.6A32.44,32.44,0,0,1,558.37,486a40.14,40.14,0,0,1,19.07-4.34,41.18,41.18,0,0,1,19.27,4.31,31.88,31.88,0,0,1,12.95,12,33.47,33.47,0,0,1,4.62,17.51,34,34,0,0,1-4.59,17.61,31.57,31.57,0,0,1-12.93,12.11A41.31,41.31,0,0,1,577.49,549.51Zm-3.79,54.3q15.91,0,24.34-4t8.43-11.12q0-4.73-3.36-6.69t-10.26-2l-38.15,0a20.51,20.51,0,0,0-4.31,4.72,11.32,11.32,0,0,0-2,6.5q0,5.7,6.43,9.14T573.7,603.81Zm3.78-67.49a20.61,20.61,0,0,0,14.57-5.52q5.94-5.5,5.93-15.35,0-9.63-6-15.14a22,22,0,0,0-29.14,0q-5.94,5.52-5.94,15.15,0,9.84,6,15.35A20.59,20.59,0,0,0,577.48,536.32ZM617.12,468,598,490.07l-4.22-4.32,5.93-24Z"/><path class="cls-1" d="M716.32,578.52H705.58a19.68,19.68,0,0,1-8.53-1.77,12.69,12.69,0,0,1-5.85-5.7q-2.12-3.93-2.12-10.62l0-39.55-.58-2.55q0-9.06-4.32-15.25t-16-6.18q-10,0-16.58,5.22a35.24,35.24,0,0,0-10.25,13.09l-11.51-12a48.89,48.89,0,0,1,8.52-9.94,45.59,45.59,0,0,1,13.51-8.37A46.91,46.91,0,0,1,670,481.56q16.88,0,26,9.62t9.12,26.95l0,39c0,2.1.45,3.58,1.35,4.43a5.62,5.62,0,0,0,4,1.27h5.76Zm-59.63,2q-11.49,0-17.92-6.28a22.61,22.61,0,0,1-.12-31.48,58,58,0,0,1,16.28-11l36.61-17,2.31,11.61-32,15.56a34.59,34.59,0,0,0-9.58,6.31,10.6,10.6,0,0,0-3.06,7.67,9.49,9.49,0,0,0,3.26,7.67q3.27,2.76,9.78,2.75a30.08,30.08,0,0,0,10.84-1.88,25,25,0,0,0,14-12.89,22.65,22.65,0,0,0,2-9.65l.58,9.25a41.89,41.89,0,0,1-5,13.28A33.43,33.43,0,0,1,674,575.89Q667.05,580.53,656.69,580.53Z"/><path class="cls-1" d="M752.36,578.49H735.68l-.07-95,16.68,0Zm0-54.11L751,516.32a52.7,52.7,0,0,1,2.77-13,38.89,38.89,0,0,1,6-11.22,29.79,29.79,0,0,1,9.2-7.87,25,25,0,0,1,12.26-3,20.12,20.12,0,0,1,13.52,5.2q6,5.2,6,15.24a38.11,38.11,0,0,1-1.23,10.43,20.46,20.46,0,0,1-2.4,5.9l-18,0A16.43,16.43,0,0,0,783,512a21.62,21.62,0,0,0,1.53-7.87,11.64,11.64,0,0,0-2.21-7q-2.2-3-7.38-3a17.78,17.78,0,0,0-11.12,4.24,28.68,28.68,0,0,0-8.43,11.12A36.25,36.25,0,0,0,752.32,524.38Z"/><path class="cls-1" d="M853.39,580.38a44.23,44.23,0,0,1-23.1-6,41,41,0,0,1-15.74-17.21q-5.65-11.21-5.67-26.36t5.54-26.27a40.83,40.83,0,0,1,15.42-17.12,42.42,42.42,0,0,1,22.52-6q13,0,22.53,5.49a36.48,36.48,0,0,1,14.58,15.73q5.09,10.23,5.1,24.39c0,1.44-.06,2.85-.19,4.23s-.25,2.53-.38,3.44l-72.47.06v-12.4l62.3,0-4,5.9q0-16.12-7.3-24.39t-20.33-8.25q-12.46,0-19.74,8.58t-7.27,25.68V532q0,10.83,3.36,18.49a25.29,25.29,0,0,0,9.79,11.7,27.6,27.6,0,0,0,15,4q9.39,0,15.34-3a25.3,25.3,0,0,0,9.19-7.29,39.16,39.16,0,0,0,5-8.46l10.36,11.6a46.1,46.1,0,0,1-14.84,15Q868.72,580.38,853.39,580.38Z"/><path class="cls-1" d="M966.44,496.68l-61.92,0V483.34l61.92,0ZM945.22,580.5a27.28,27.28,0,0,1-13.51-3.23,22.92,22.92,0,0,1-9.12-9.14A29.06,29.06,0,0,1,919.32,554l-.06-82.82,16.86-12.81.07,90.31q0,9.25,3.65,12.29a13.52,13.52,0,0,0,9,3.05,14.09,14.09,0,0,0,10.35-4.24,27.87,27.87,0,0,0,6.13-8.76l5.57,16.91a27.39,27.39,0,0,1-9.48,8.77Q955,580.5,945.22,580.5Z"/><path class="cls-1" d="M1004.08,578.3H987.4l-.1-131.82H1004Zm61.54,0h-16.87l0-61.58q0-9.24-4.23-15.15t-16.11-5.89q-9,0-14.37,3.85a20.94,20.94,0,0,0-7.66,10.34,42.62,42.62,0,0,0-2.29,14.36l-1.35-7.87a48.63,48.63,0,0,1,4.59-16.92,33.47,33.47,0,0,1,10.82-13.09q7-5,17.92-5,13.43,0,21.48,8.05t8.07,23.21Z"/><path class="cls-1" d="M1149,578.18l-16.68,0-.07-95h16.68Zm57.51,0h-16.67l0-61.58q0-10.82-5-15.93t-15.34-5.1a17.34,17.34,0,0,0-11.5,3.84,22.5,22.5,0,0,0-6.79,10.34,44.42,44.42,0,0,0-2.2,14.36l-1.35-7.87a50.3,50.3,0,0,1,4.5-16.92,33.89,33.89,0,0,1,10.34-13.09q6.61-5,16.39-5,13.61,0,20.61,8.05t7,23.21Zm57.52,0h-16.49l0-61.58q0-10.81-5-15.94t-15.34-5.1a17.66,17.66,0,0,0-11.69,3.85,22.4,22.4,0,0,0-6.8,10.33,44.22,44.22,0,0,0-2.19,14.37l-1.35-7.87a55.1,55.1,0,0,1,4.59-16.93A33.28,33.28,0,0,1,1220,486.15q6.62-5,16.39-5,13.61,0,20.62,8.05t7,23.21Z"/><path class="cls-1" d="M1367.76,578H1357a19.53,19.53,0,0,1-8.53-1.76,12.69,12.69,0,0,1-5.85-5.7q-2.12-3.93-2.12-10.62l0-39.55-.58-2.56q0-9-4.32-15.24t-16-6.19q-10,0-16.58,5.23a35.24,35.24,0,0,0-10.25,13.09l-11.51-12a48.62,48.62,0,0,1,8.52-9.94,45.59,45.59,0,0,1,13.51-8.37,46.91,46.91,0,0,1,18.21-3.36q16.88,0,26,9.62t9.12,26.94l0,39c0,2.1.45,3.57,1.35,4.42a5.58,5.58,0,0,0,4,1.28h5.76Zm-59.63,2q-11.49,0-17.93-6.28a22.62,22.62,0,0,1-.11-31.48,58,58,0,0,1,16.28-11l36.61-17,2.31,11.61-32,15.56a34.59,34.59,0,0,0-9.58,6.31,10.6,10.6,0,0,0-3.06,7.67,9.49,9.49,0,0,0,3.26,7.67q3.27,2.76,9.78,2.75a30.08,30.08,0,0,0,10.84-1.88,25.35,25.35,0,0,0,8.43-5.22,24.89,24.89,0,0,0,5.55-7.68,22.6,22.6,0,0,0,2-9.64l.58,9.25a41.89,41.89,0,0,1-5,13.28,33.43,33.43,0,0,1-10.72,11.42Q1318.49,580,1308.13,580Z"/><path class="cls-1" d="M1403.8,578h-16.68l-.07-95h16.68Zm0-54.11-1.35-8.06a52.7,52.7,0,0,1,2.77-13,38.76,38.76,0,0,1,6-11.22,29.52,29.52,0,0,1,9.2-7.87,25,25,0,0,1,12.26-3,20.18,20.18,0,0,1,13.52,5.21q6,5.2,6,15.24a38.16,38.16,0,0,1-1.23,10.43,20.46,20.46,0,0,1-2.4,5.9l-18,0a16.48,16.48,0,0,0,3.83-6.11,21.54,21.54,0,0,0,1.53-7.87,11.63,11.63,0,0,0-2.21-7c-1.47-2-3.93-3.05-7.38-3a17.7,17.7,0,0,0-11.12,4.24,28.68,28.68,0,0,0-8.43,11.12A36.25,36.25,0,0,0,1403.76,523.88Z"/><path class="cls-1" d="M1502.72,579.88a42.65,42.65,0,0,1-22.91-6.08,42.11,42.11,0,0,1-15.54-17.21q-5.67-11.1-5.68-26.26t5.64-26.17a41.35,41.35,0,0,1,38.42-23.24,40.79,40.79,0,0,1,38,23.18q5.56,11,5.58,26.17t-5.54,26.27a40.7,40.7,0,0,1-38,23.34Zm-.2-14.36a24.27,24.27,0,0,0,23.57-15.47q3.45-7.77,3.44-19.77t-3.47-19.77a26,26,0,0,0-37.39-11.58,24.71,24.71,0,0,0-9.48,11.61q-3.36,7.79-3.34,19.78t3.37,19.77a24.67,24.67,0,0,0,9.5,11.6A25.46,25.46,0,0,0,1502.52,565.52Z"/><path class="cls-1" d="M1618.08,496.17l-61.93.05V482.84l61.93,0ZM1596.86,580a27.32,27.32,0,0,1-13.52-3.23,22.89,22.89,0,0,1-9.11-9.14,28.84,28.84,0,0,1-3.27-14.17l-.06-82.83,16.86-12.8.06,90.31c0,6.16,1.22,10.26,3.66,12.29a13.5,13.5,0,0,0,9,3,14,14,0,0,0,10.35-4.23,28.2,28.2,0,0,0,6.13-8.76l5.57,16.91a27.61,27.61,0,0,1-9.49,8.77Q1606.63,580,1596.86,580Z"/><path class="cls-1" d="M1669.9,579.75a42.71,42.71,0,0,1-22.92-6.08,42.22,42.22,0,0,1-15.54-17.2q-5.65-11.12-5.67-26.26T1631.4,504a41.4,41.4,0,0,1,38.43-23.24,40.79,40.79,0,0,1,38,23.18q5.57,11,5.58,26.17t-5.54,26.27a40.67,40.67,0,0,1-37.94,23.34Zm-.2-14.36a24.3,24.3,0,0,0,23.57-15.46q3.43-7.78,3.43-19.78t-3.46-19.77a26,26,0,0,0-37.4-11.58,24.74,24.74,0,0,0-9.48,11.62q-3.34,7.77-3.34,19.77t3.37,19.77a24.73,24.73,0,0,0,9.5,11.6A25.47,25.47,0,0,0,1669.7,565.39Z"/><path class="cls-1" d="M221.26,774.71h-9.2L212,644.08h9.2Zm31.23-34.65a29.18,29.18,0,0,1-16.78-4.71A32.56,32.56,0,0,1,224.77,723a39.1,39.1,0,0,1-4.33-16.33l.77-5.11a34,34,0,0,0,3.27,14.75,28.12,28.12,0,0,0,9.69,11.31q6.42,4.41,16,4.41,13.8,0,22.71-10t8.89-31q0-21.24-8.94-31.17T250.12,650q-9.59,0-16,4.44a28.18,28.18,0,0,0-9.67,11.32,34.08,34.08,0,0,0-3.25,14.75l-.77-5.11a39.25,39.25,0,0,1,4.3-16.33,32.76,32.76,0,0,1,10.92-12.41,29.23,29.23,0,0,1,16.77-4.73q12.47,0,21,6.08a38.87,38.87,0,0,1,13.15,17.11q4.6,11,4.62,26,0,14.57-4.59,25.68T273.47,734Q265,740.06,252.49,740.06Z"/><path class="cls-1" d="M387.26,738h-7.09a19.19,19.19,0,0,1-7.48-1.37,10,10,0,0,1-5-4.52,18.16,18.16,0,0,1-1.73-8.66l0-43.48-.2-5.71q0-12-5.86-17.7t-16.59-5.69a32,32,0,0,0-18.4,5.33,33.45,33.45,0,0,0-11.68,13.19l-6.34-6.69a36.41,36.41,0,0,1,7.86-9.84,42.23,42.23,0,0,1,12.65-7.78A43.8,43.8,0,0,1,344.05,642q15.72,0,23.3,8.45t7.59,23.4l0,48.21q0,4.13,1.92,5.7a8.24,8.24,0,0,0,5.37,1.57h5Zm-55.6,2q-10.92,0-17-5.49t-6.05-14.75a21.1,21.1,0,0,1,5.93-15.35A51.48,51.48,0,0,1,329.71,694l38-17.74,1.15,6.89-34.68,16.94q-8.44,3.95-12.36,8.18a14.37,14.37,0,0,0-3.93,10.13q0,6.89,4.52,10.23t11.6,3.33a30.66,30.66,0,0,0,12.65-2.66,35.22,35.22,0,0,0,16.95-15.85,20.92,20.92,0,0,0,2.39-9.64l.2,5.7A32.85,32.85,0,0,1,360.41,724a39.62,39.62,0,0,1-12.17,11.51A31,31,0,0,1,331.66,740Z"/><path class="cls-1" d="M417.85,626.22h-9.2l0-20.06h9.21ZM417.93,738h-9.2l-.07-94.05h9.2Z"/><path class="cls-1" d="M480.62,739.89A52.57,52.57,0,0,1,463.18,737a37.36,37.36,0,0,1-14.49-9A35.37,35.37,0,0,1,440,712.38l7.09-5.72a30.19,30.19,0,0,0,5.76,12.89,29.51,29.51,0,0,0,11.61,9A39.82,39.82,0,0,0,481,731.82q10.15,0,16.1-4.44T503,714.69q0-7.87-5.77-11.7t-15.91-6.39l-12.47-2.94A68.37,68.37,0,0,1,456.14,689a28.07,28.07,0,0,1-10-8q-3.94-5-3.94-13.28,0-11.81,8.32-18.79t22.14-7q14.76,0,23.87,6.57a31.51,31.51,0,0,1,12.19,17.4l-7.09,5.32q-3.27-10.62-10.65-15.93T472.12,650q-9,0-15,4.64a15.07,15.07,0,0,0-6,12.69q0,8.27,5.76,12.1t15.91,6.38l12.85,3.14q13.23,3.52,19.66,9.52t6.43,16q0,8.87-4.3,14.47a25.16,25.16,0,0,1-11.31,8.27A43.34,43.34,0,0,1,480.62,739.89Z"/><path class="cls-1" d="M607.73,737.82h-7.1a19.18,19.18,0,0,1-7.47-1.37,10,10,0,0,1-5-4.52,18.16,18.16,0,0,1-1.73-8.66l0-43.48-.19-5.71q0-12-5.86-17.7t-16.59-5.69a32,32,0,0,0-18.4,5.33,33.45,33.45,0,0,0-11.68,13.19l-6.34-6.69a36.41,36.41,0,0,1,7.86-9.84,42.23,42.23,0,0,1,12.65-7.78,43.8,43.8,0,0,1,16.67-3.07q15.72,0,23.3,8.45t7.59,23.4l0,48.21q0,4.13,1.92,5.7a8.22,8.22,0,0,0,5.37,1.57h5Zm-55.6,2q-10.92,0-17-5.49t-6-14.75A21.1,21.1,0,0,1,535,704.24a51.48,51.48,0,0,1,15.14-10.44l38-17.74,1.15,6.89L554.6,699.89q-8.45,3.95-12.37,8.18a14.4,14.4,0,0,0-3.92,10.13q0,6.88,4.51,10.23t11.61,3.34a30.83,30.83,0,0,0,12.65-2.67A35.1,35.1,0,0,0,584,713.25a21,21,0,0,0,2.39-9.64l.2,5.7a32.85,32.85,0,0,1-5.74,14.47,39.73,39.73,0,0,1-12.17,11.51A31,31,0,0,1,552.13,739.83Z"/><path class="cls-1" d="M658.94,776.34q-17.06,0-27.13-5.68t-10.07-15.53a15.67,15.67,0,0,1,2.86-9.35,28.29,28.29,0,0,1,7-6.89,29.27,29.27,0,0,1,7.95-4,12.85,12.85,0,0,1-7.29-4.33,11.43,11.43,0,0,1-2.5-7.27,18.31,18.31,0,0,1,1.72-7.68,29.49,29.49,0,0,1,4.79-7.18,49.09,49.09,0,0,1,6.32-6l2.11,1a30.78,30.78,0,0,0-5,6.89,16.3,16.3,0,0,0-2.1,7.68,8.23,8.23,0,0,0,2.88,6.59q2.88,2.46,10.55,2.45l29.14,0q11.68,0,18.41,4.9t6.72,14.95a23,23,0,0,1-5.74,15.25q-5.75,6.8-16.1,10.54T658.94,776.34Zm4.36-67.68A37.72,37.72,0,0,1,645,704.45a30.1,30.1,0,0,1-12.09-11.9,36.92,36.92,0,0,1,0-34.62A30.1,30.1,0,0,1,645,646a37.67,37.67,0,0,1,18.31-4.24A38.68,38.68,0,0,1,681.85,646a29.37,29.37,0,0,1,12.09,11.9,37.67,37.67,0,0,1,0,34.63,29.47,29.47,0,0,1-12.07,11.91A38.7,38.7,0,0,1,663.3,708.66Zm-4.36,60q17.64,0,27.6-5.92t10-15.16q0-6.3-4.32-9.34t-13.52-3l-36.62,0a34.11,34.11,0,0,0-8.43,7.28,15.15,15.15,0,0,0-3.82,10q0,7.88,8,12T658.94,768.67ZM663.3,701q11.51,0,18.69-7.1t7.17-18.69q0-11.61-7.2-18.69t-18.7-7.07q-11.31,0-18.49,7.1t-7.18,18.7q0,11.61,7.2,18.68T663.3,701Zm37.52-73.61-16.47,21.85-2.88-2L691,623.45Z"/><path class="cls-1" d="M733.41,626h-9.2l0-20.06h9.21Zm.08,111.76h-9.2l-.07-94h9.2Z"/><path class="cls-1" d="M796.18,739.65a52.61,52.61,0,0,1-17.44-2.94,37.59,37.59,0,0,1-14.49-9,35.35,35.35,0,0,1-8.73-15.54l7.09-5.71a30.4,30.4,0,0,0,5.76,12.88,29.42,29.42,0,0,0,11.61,9,40,40,0,0,0,16.58,3.24q10.16,0,16.1-4.44t5.94-12.7q0-7.86-5.76-11.7t-15.92-6.38l-12.47-2.94a69.81,69.81,0,0,1-12.75-4.71,28.27,28.27,0,0,1-10-8q-3.94-5-3.94-13.28,0-11.81,8.32-18.8t22.14-7q14.76,0,23.87,6.58a31.51,31.51,0,0,1,12.19,17.4L817.22,671q-3.27-10.62-10.65-15.92t-18.89-5.3q-9,0-15,4.64a15.06,15.06,0,0,0-6,12.69q0,8.26,5.76,12.1t15.91,6.38l12.85,3.13q13.23,3.54,19.66,9.53t6.43,16q0,8.85-4.3,14.47A25.23,25.23,0,0,1,811.61,737,43.34,43.34,0,0,1,796.18,739.65Z"/><path class="cls-1" d="M856.77,737.63h-9.21l-.07-94h9.21Zm58.66,0h-9.2L906.18,677q0-13.77-5.67-20.56t-16.58-6.77q-9,0-15.15,4.73a28.24,28.24,0,0,0-9.1,12.2,42.79,42.79,0,0,0-2.95,15.94l-.78-5.11a44.18,44.18,0,0,1,4.31-17.61,34.25,34.25,0,0,1,10.82-13.19,27.54,27.54,0,0,1,16.67-5q13,0,20.33,8.24t7.3,25.38Zm58.67-.05h-9.21l0-60.6q0-13.77-5.67-20.56t-16.59-6.77q-9.21,0-15.24,4.73a28.56,28.56,0,0,0-9,12.21,42.8,42.8,0,0,0-3,15.94l-.77-5.12a45.37,45.37,0,0,1,4.2-17.61,33.38,33.38,0,0,1,10.83-13.19,28,28,0,0,1,16.77-5q13,0,20.33,8.25t7.3,25.37Z"/><path class="cls-1" d="M1037.74,739.46a41.12,41.12,0,0,1-22.14-6,40.12,40.12,0,0,1-15.07-17.11q-5.37-11.11-5.38-25.87,0-14.94,5.35-26a40.16,40.16,0,0,1,15-17,41.15,41.15,0,0,1,22.14-6,40.56,40.56,0,0,1,22.15,6,41.34,41.34,0,0,1,15,17q5.46,11,5.48,26,0,14.74-5.45,25.87a41,41,0,0,1-14.94,17.13A40.52,40.52,0,0,1,1037.74,739.46Zm.19-8.26a30.33,30.33,0,0,0,28.93-18.62q4.22-9.15,4.21-22.14t-4.24-22.13a32.16,32.16,0,0,0-11.7-14,31.43,31.43,0,0,0-46.29,14q-4.12,9.15-4.11,22.14t4.14,22.13a30.87,30.87,0,0,0,11.61,13.86A32.05,32.05,0,0,0,1037.93,731.2Z"/></svg>