<svg width="144" height="29" viewBox="0 0 144 29" fill="none" xmlns="http://www.w3.org/2000/svg">
<path d="M14.2991 18.9883C14.4999 18.9934 14.6401 18.9968 14.8097 19.1195C15.6538 19.7307 16.4172 20.4609 17.2195 21.1245C17.5164 21.3699 17.8211 21.6355 18.072 21.9222C18.1184 23.5741 18.0706 25.2411 18.0885 26.8939C18.0945 27.4367 18.0917 27.9893 18.0706 28.5311C17.6602 29.1168 17.0931 28.9864 16.4411 28.99C15.8303 28.9936 15.2173 28.9819 14.6065 28.9792C13.783 28.977 12.9592 28.9931 12.1359 28.9927C11.5361 28.9922 11.2126 29.0393 10.8244 28.545C10.7849 27.7342 10.8096 26.7389 10.8094 25.9156C10.8035 24.5889 10.8073 23.2622 10.8208 21.9355C11.1164 21.5559 13.8837 19.1778 14.2991 18.9883Z" fill="#091717"/>
<path d="M5.65507 15.3617C5.92151 15.337 6.18212 15.3563 6.34099 15.6026C7.37712 17.205 8.30256 18.8817 9.28107 20.5192C9.81736 21.4167 8.88209 21.7544 8.18634 22.1258C6.74166 22.897 5.31767 23.8123 3.85512 24.5381C3.6123 24.556 3.34015 24.5778 3.17835 24.3544C2.82312 23.864 2.52446 23.3234 2.21587 22.803L0.34612 19.6405C0.0410732 19.1157 -0.221372 18.6545 0.456044 18.2808C2.16758 17.3367 3.91206 16.2372 5.65507 15.3617Z" fill="#091717"/>
<path d="M22.8723 15.3568C23.6062 15.295 27.3538 17.7629 28.3 18.1959C28.9709 18.5028 29.0008 19.0209 28.5739 19.5928C27.9443 20.4356 26.1457 24.1591 25.4361 24.5451C24.6053 24.5867 20.8953 22.1151 19.9445 21.6832C19.8195 21.6265 19.5305 21.3718 19.4372 21.248C19.4156 21.1209 19.4395 21.0145 19.4753 20.8928C19.6334 20.3581 22.0943 16.2066 22.5231 15.637C22.62 15.5081 22.7317 15.4339 22.8723 15.3568Z" fill="#091717"/>
<path d="M25.1263 4.42132C25.6713 4.43104 25.7872 4.69326 26.0404 5.12014C26.9415 6.63847 27.851 8.15242 28.7342 9.68052C29.0063 10.1512 28.8335 10.4694 28.4001 10.7267C27.0927 11.5077 25.7453 12.2245 24.4223 12.9801C24.0147 13.2122 23.5836 13.4784 23.1503 13.6491C22.9205 13.6394 22.6765 13.5936 22.5487 13.3918C21.5837 11.8689 20.6986 10.2889 19.7712 8.74346C19.4284 8.172 19.1849 7.75964 19.8875 7.34079C21.1977 6.55946 22.5496 5.8359 23.8754 5.07864C24.2771 4.84999 24.6985 4.59184 25.1263 4.42132Z" fill="#091717"/>
<path d="M3.51012 4.42081C3.93501 4.41615 4.44515 4.75119 4.81376 4.9625C6.25512 5.79026 7.72833 6.57146 9.14851 7.4327C9.7575 7.78854 9.31946 8.42511 9.04962 8.86655C8.13126 10.3691 7.29379 11.9384 6.31982 13.4059C6.24726 13.5152 6.07875 13.5918 5.95995 13.6458C5.2705 13.6577 1.43807 11.1693 0.559739 10.7664C0.402758 10.6945 0.0967928 10.3907 0.000150323 10.2322C-0.00118236 10.1527 0.00580478 10.0553 0.043028 9.98234C0.964188 8.17656 2.07256 6.41747 3.14349 4.68966C3.22143 4.56395 3.37956 4.48167 3.51012 4.42081Z" fill="#091717"/>
<path d="M11.2621 0.0396221C12.2031 -0.0456635 13.527 0.0373363 14.5164 0.0112084C15.4773 0.0226814 16.4442 -0.0198034 17.4028 0.0372478C17.758 0.0583563 18.0709 0.283961 18.0737 0.646615C18.0889 2.62898 18.1206 4.62425 18.0599 6.60432C18.053 6.82052 17.7938 6.99463 17.6275 7.09627C17.3803 7.11698 17.1133 7.11402 16.8628 7.11214C15.0361 7.09838 13.2014 7.1548 11.3768 7.09426C11.1127 7.08552 10.9693 6.87685 10.8239 6.69288C10.8057 6.40005 10.8094 6.08665 10.8122 5.79185C10.8284 4.04571 10.7678 2.29218 10.8292 0.548378C10.837 0.326 11.092 0.154576 11.2621 0.0396221Z" fill="#091717"/>
<path d="M43.356 24.0796V4.40805H47.5518V11.8041H47.6798C47.8637 11.4071 48.1296 11.0036 48.4776 10.5938C48.8322 10.1776 49.2918 9.83181 49.8565 9.55646C50.4278 9.2747 51.1369 9.13383 51.9839 9.13383C53.087 9.13383 54.1048 9.41558 55.0372 9.97909C55.9696 10.5362 56.7148 11.3782 57.2729 12.5053C57.831 13.6259 58.1101 15.0314 58.1101 16.722C58.1101 18.3677 57.8376 19.7572 57.2926 20.8906C56.7542 22.0176 56.0188 22.8725 55.0864 23.4552C54.1606 24.0315 53.1231 24.3197 51.9741 24.3197C51.1599 24.3197 50.4672 24.1884 49.8959 23.9259C49.3312 23.6633 48.8683 23.3336 48.5072 22.9365C48.146 22.5331 47.8703 22.1265 47.6798 21.7167H47.4927V24.0796H43.356ZM47.4632 16.7027C47.4632 17.58 47.5879 18.3452 47.8374 18.9984C48.0869 19.6516 48.4481 20.1606 48.9208 20.5256C49.3936 20.8842 49.9681 21.0635 50.6444 21.0635C51.3273 21.0635 51.9051 20.881 52.3779 20.516C52.8507 20.1446 53.2085 19.6323 53.4515 18.9792C53.701 18.3196 53.8257 17.5608 53.8257 16.7027C53.8257 15.8511 53.7043 15.1019 53.4613 14.4551C53.2184 13.8084 52.8605 13.3025 52.3877 12.9375C51.915 12.5725 51.3339 12.39 50.6444 12.39C49.9616 12.39 49.3837 12.5661 48.911 12.9183C48.4448 13.2705 48.0869 13.7699 47.8374 14.4167C47.5879 15.0635 47.4632 15.8255 47.4632 16.7027Z" fill="#091717"/>
<path d="M69.5018 17.7977V9.32593H73.6975V24.0796H69.6692V21.3997H69.5116C69.1702 22.2642 68.6022 22.959 67.8077 23.484C67.0198 24.0091 66.0578 24.2717 64.9219 24.2717C63.9107 24.2717 63.021 24.0475 62.2528 23.5993C61.4845 23.1511 60.8837 22.5139 60.4504 21.6879C60.0236 20.8618 59.8069 19.8725 59.8003 18.7198V9.32593H63.9961V17.9898C64.0026 18.8607 64.2423 19.5491 64.7151 20.055C65.1878 20.5608 65.8215 20.8138 66.616 20.8138C67.1215 20.8138 67.5943 20.7017 68.0342 20.4776C68.4742 20.2471 68.8287 19.9077 69.0979 19.4594C69.3737 19.0112 69.5083 18.4573 69.5018 17.7977Z" fill="#091717"/>
<path d="M75.9442 24.0796V9.32593H80.14V24.0796H75.9442ZM78.0519 7.4241C77.4281 7.4241 76.893 7.22239 76.4465 6.81897C76.0066 6.40914 75.7866 5.91928 75.7866 5.34937C75.7866 4.78586 76.0066 4.3024 76.4465 3.89898C76.893 3.48916 77.4281 3.28424 78.0519 3.28424C78.6757 3.28424 79.2076 3.48916 79.6475 3.89898C80.094 4.3024 80.3172 4.78586 80.3172 5.34937C80.3172 5.91928 80.094 6.40914 79.6475 6.81897C79.2076 7.22239 78.6757 7.4241 78.0519 7.4241Z" fill="#091717"/>
<path d="M86.5873 4.40805V24.0796H82.3916V4.40805H86.5873Z" fill="#091717"/>
<path d="M94.4136 24.3197C93.2645 24.3197 92.2238 24.0315 91.2914 23.4552C90.3656 22.8725 89.6301 22.0176 89.0852 20.8906C88.5467 19.7572 88.2775 18.3677 88.2775 16.722C88.2775 15.0314 88.5566 13.6259 89.1147 12.5053C89.6728 11.3782 90.4148 10.5362 91.3406 9.97909C92.273 9.41558 93.294 9.13383 94.4037 9.13383C95.2507 9.13383 95.9566 9.2747 96.5213 9.55646C97.0925 9.83181 97.5522 10.1776 97.9002 10.5938C98.2547 11.0036 98.5239 11.4071 98.7078 11.8041H98.8358V4.40805H103.022V24.0796H98.8851V21.7167H98.7078C98.5108 22.1265 98.2318 22.5331 97.8706 22.9365C97.5161 23.3336 97.0531 23.6633 96.4819 23.9259C95.9172 24.1884 95.2278 24.3197 94.4136 24.3197ZM95.7432 21.0635C96.4195 21.0635 96.9908 20.8842 97.457 20.5256C97.9297 20.1606 98.2909 19.6516 98.5404 18.9984C98.7964 18.3452 98.9245 17.58 98.9245 16.7027C98.9245 15.8255 98.7997 15.0635 98.5502 14.4167C98.3007 13.7699 97.9396 13.2705 97.4668 12.9183C96.994 12.5661 96.4195 12.39 95.7432 12.39C95.0538 12.39 94.4727 12.5725 93.9999 12.9375C93.5271 13.3025 93.1693 13.8084 92.9263 14.4551C92.6834 15.1019 92.5619 15.8511 92.5619 16.7027C92.5619 17.5608 92.6834 18.3196 92.9263 18.9792C93.1758 19.6323 93.5337 20.1446 93.9999 20.516C94.4727 20.881 95.0538 21.0635 95.7432 21.0635Z" fill="#091717"/>
<path d="M112.256 24.3677C110.7 24.3677 109.361 24.0604 108.238 23.4456C107.122 22.8245 106.262 21.9472 105.657 20.8138C105.053 19.674 104.751 18.326 104.751 16.77C104.751 15.2524 105.053 13.9204 105.657 12.7742C106.262 11.628 107.112 10.7347 108.208 10.0943C109.312 9.454 110.605 9.13383 112.089 9.13383C113.087 9.13383 114.016 9.29071 114.876 9.60448C115.743 9.91185 116.498 10.3761 117.142 10.9972C117.792 11.6184 118.297 12.3996 118.658 13.3409C119.02 14.2758 119.2 15.3708 119.2 16.6259V17.7497H106.426V15.2139H115.251C115.251 14.6248 115.119 14.1029 114.857 13.6483C114.594 13.1936 114.23 12.8382 113.763 12.5821C113.304 12.3196 112.769 12.1883 112.158 12.1883C111.521 12.1883 110.956 12.3324 110.464 12.6205C109.978 12.9023 109.597 13.2833 109.321 13.7635C109.046 14.2374 108.904 14.7657 108.898 15.3484V17.7593C108.898 18.4893 109.036 19.1201 109.312 19.6516C109.594 20.183 109.991 20.5929 110.503 20.881C111.015 21.1692 111.623 21.3133 112.325 21.3133C112.792 21.3133 113.218 21.2492 113.606 21.1212C113.993 20.9931 114.325 20.801 114.601 20.5448C114.876 20.2887 115.086 19.9749 115.231 19.6035L119.111 19.8533C118.914 20.7626 118.511 21.5566 117.9 22.2354C117.296 22.9077 116.515 23.4328 115.556 23.8106C114.604 24.182 113.504 24.3677 112.256 24.3677Z" fill="#091717"/>
<path d="M120.829 24.0796V9.32593H124.896V11.9001H125.054C125.33 10.9844 125.793 10.2929 126.443 9.8254C127.093 9.35155 127.841 9.11462 128.688 9.11462C128.898 9.11462 129.125 9.12742 129.368 9.15304C129.611 9.17865 129.824 9.21387 130.008 9.2587V12.8895C129.811 12.8318 129.539 12.7806 129.191 12.7358C128.843 12.691 128.524 12.6686 128.235 12.6686C127.618 12.6686 127.067 12.7998 126.581 13.0624C126.101 13.3185 125.721 13.6771 125.438 14.1382C125.162 14.5992 125.024 15.1307 125.024 15.7326V24.0796H120.829Z" fill="#091717"/>
<path d="M143.655 13.533L139.814 13.7635C139.748 13.4434 139.607 13.1552 139.391 12.8991C139.174 12.6365 138.888 12.4284 138.534 12.2747C138.186 12.1146 137.769 12.0346 137.283 12.0346C136.633 12.0346 136.085 12.1691 135.638 12.438C135.192 12.7006 134.968 13.0528 134.968 13.4946C134.968 13.8468 135.113 14.1446 135.402 14.3879C135.691 14.6312 136.186 14.8265 136.889 14.9738L139.627 15.5117C141.098 15.8063 142.194 16.2801 142.917 16.9333C143.639 17.5864 144 18.4445 144 19.5075C144 20.4744 143.708 21.3229 143.123 22.0529C142.546 22.7829 141.751 23.3528 140.74 23.7626C139.735 24.166 138.576 24.3677 137.263 24.3677C135.261 24.3677 133.665 23.9611 132.476 23.1479C131.295 22.3282 130.602 21.214 130.398 19.8052L134.525 19.5939C134.65 20.1894 134.952 20.6441 135.431 20.9579C135.911 21.2652 136.524 21.4189 137.273 21.4189C138.008 21.4189 138.599 21.2812 139.046 21.0059C139.499 20.7241 139.729 20.3623 139.735 19.9205C139.729 19.5491 139.568 19.2449 139.253 19.008C138.938 18.7647 138.452 18.579 137.795 18.4509L135.175 17.9418C133.698 17.6537 132.598 17.1542 131.876 16.4434C131.16 15.7326 130.802 14.8265 130.802 13.7251C130.802 12.7774 131.065 11.961 131.59 11.2758C132.122 10.5906 132.867 10.0623 133.826 9.69093C134.791 9.31953 135.92 9.13383 137.214 9.13383C139.125 9.13383 140.628 9.52764 141.725 10.3153C142.828 11.1029 143.471 12.1755 143.655 13.533Z" fill="#091717"/>
</svg>
