<svg width="157" height="32" viewBox="0 0 157 32" fill="none" xmlns="http://www.w3.org/2000/svg">
<path d="M15.59 20.9526C15.8089 20.9583 15.9618 20.962 16.1466 21.0973C17.067 21.7718 17.8993 22.5776 18.7741 23.3097C19.0977 23.5805 19.4299 23.8737 19.7035 24.1901C19.7541 26.0128 19.702 27.8523 19.7215 29.6761C19.728 30.2749 19.725 30.8847 19.702 31.4826C19.2546 32.1289 18.6363 31.985 17.9253 31.989C17.2594 31.9929 16.5911 31.9801 15.9252 31.9771C15.0273 31.9746 14.1291 31.9924 13.2315 31.9919C12.5775 31.9914 12.2249 32.0434 11.8016 31.4979C11.7585 30.6033 11.7855 29.505 11.7853 28.5965C11.7788 27.1326 11.783 25.6686 11.7977 24.2047C12.12 23.7858 15.1371 21.1617 15.59 20.9526Z" fill="white"/>
<path d="M6.16559 16.9508C6.45609 16.9236 6.74023 16.9448 6.91344 17.2166C8.04311 18.9849 9.05209 20.8349 10.1189 22.6418C10.7036 23.6322 9.68395 24.0049 8.92538 24.4147C7.35029 25.2657 5.79774 26.2756 4.20315 27.0765C3.93841 27.0963 3.6417 27.1203 3.46528 26.8738C3.07798 26.3327 2.75236 25.7362 2.41592 25.162L0.377367 21.6723C0.0447812 21.0932 -0.241357 20.5843 0.497215 20.172C2.36326 19.1302 4.26523 17.9169 6.16559 16.9508Z" fill="white"/>
<path d="M24.9372 16.9455C25.7373 16.8773 29.8232 19.6004 30.8549 20.0783C31.5864 20.4169 31.6189 20.9886 31.1535 21.6196C30.4671 22.5496 28.506 26.6584 27.7324 27.0842C26.8266 27.1302 22.7817 24.4028 21.7451 23.9263C21.6088 23.8637 21.2937 23.5827 21.1919 23.4461C21.1684 23.3058 21.1945 23.1884 21.2335 23.0541C21.4059 22.4641 24.0889 17.8832 24.5564 17.2546C24.6621 17.1124 24.7839 17.0305 24.9372 16.9455Z" fill="white"/>
<path d="M27.3947 4.8787C27.9889 4.88943 28.1152 5.17877 28.3912 5.64981C29.3738 7.32521 30.3653 8.99577 31.3283 10.682C31.6249 11.2013 31.4365 11.5525 30.964 11.8363C29.5386 12.6981 28.0696 13.4891 26.6271 14.3228C26.1827 14.579 25.7127 14.8727 25.2402 15.0611C24.9897 15.0504 24.7237 14.9999 24.5844 14.7772C23.5322 13.0968 22.5672 11.3533 21.5561 9.64795C21.1824 9.01738 20.9168 8.56237 21.6829 8.10018C23.1113 7.23803 24.5854 6.43962 26.0309 5.60402C26.4688 5.35171 26.9282 5.06686 27.3947 4.8787Z" fill="white"/>
<path d="M3.827 4.87814C4.29026 4.87299 4.84645 5.2427 5.24833 5.47587C6.81982 6.38926 8.42603 7.25127 9.97442 8.2016C10.6384 8.59425 10.1608 9.29667 9.8666 9.78378C8.86533 11.4417 7.95225 13.1734 6.89036 14.7927C6.81125 14.9133 6.62752 14.9978 6.49801 15.0574C5.74631 15.0706 1.56789 12.3248 0.610271 11.8802C0.439119 11.8008 0.105531 11.4656 0.000163894 11.2907C-0.0012891 11.203 0.00632882 11.0955 0.0469125 11.015C1.05123 9.02241 2.25967 7.08134 3.42728 5.1748C3.51225 5.03608 3.68466 4.94529 3.827 4.87814Z" fill="white"/>
<path d="M12.2789 0.0437209C13.3048 -0.0503873 14.7481 0.0411987 15.8269 0.0123679C16.8745 0.0250277 17.9287 -0.0218521 18.9739 0.041101C19.3612 0.0643932 19.7024 0.313337 19.7054 0.713507C19.7219 2.90094 19.7565 5.10262 19.6903 7.28753C19.6828 7.52609 19.4002 7.71821 19.2189 7.83037C18.9493 7.85322 18.6582 7.84995 18.3851 7.84788C16.3935 7.8327 14.3932 7.89496 12.4039 7.82815C12.116 7.8185 11.9596 7.58825 11.801 7.38525C11.7812 7.06213 11.7853 6.7163 11.7882 6.391C11.806 4.46423 11.7399 2.52931 11.8068 0.605107C11.8154 0.359724 12.0934 0.170567 12.2789 0.0437209Z" fill="white"/>
<path d="M47.2701 26.5706V4.86406H51.8447V13.0252H51.9843C52.1847 12.5871 52.4747 12.142 52.8541 11.6897C53.2407 11.2305 53.7418 10.8489 54.3574 10.5451C54.9803 10.2342 55.7534 10.0787 56.6769 10.0787C57.8796 10.0787 58.9892 10.3896 60.0058 11.0114C61.0224 11.6261 61.8349 12.5553 62.4434 13.7989C63.0519 15.0354 63.3562 16.5864 63.3562 18.4518C63.3562 20.2678 63.0591 21.8011 62.4649 23.0517C61.8779 24.2953 61.0761 25.2386 60.0595 25.8816C59.0501 26.5176 57.919 26.8355 56.6662 26.8355C55.7785 26.8355 55.0232 26.6907 54.4004 26.401C53.7847 26.1113 53.28 25.7474 52.8863 25.3093C52.4926 24.8641 52.1919 24.4154 51.9843 23.9632H51.7802V26.5706H47.2701ZM51.748 18.4306C51.748 19.3986 51.884 20.243 52.1561 20.9637C52.4281 21.6845 52.8219 22.2462 53.3373 22.649C53.8527 23.0447 54.4791 23.2425 55.2165 23.2425C55.961 23.2425 56.591 23.0411 57.1065 22.6384C57.6219 22.2285 58.0121 21.6633 58.2769 20.9425C58.549 20.2148 58.685 19.3774 58.685 18.4306C58.685 17.4908 58.5525 16.6641 58.2877 15.9505C58.0228 15.2368 57.6326 14.6786 57.1172 14.2759C56.6018 13.8731 55.9682 13.6717 55.2165 13.6717C54.472 13.6717 53.842 13.866 53.3266 14.2547C52.8183 14.6433 52.4281 15.1944 52.1561 15.9081C51.884 16.6217 51.748 17.4626 51.748 18.4306Z" fill="white"/>
<path d="M75.7762 19.6389V10.2907H80.3508V26.5706H75.9588V23.6135H75.787C75.4147 24.5674 74.7955 25.334 73.9292 25.9134C73.0702 26.4928 72.0214 26.7825 70.7829 26.7825C69.6804 26.7825 68.7104 26.5352 67.8728 26.0406C67.0352 25.546 66.3802 24.8429 65.9077 23.9314C65.4424 23.0199 65.2061 21.9282 65.199 20.6564V10.2907H69.7735V19.8509C69.7806 20.8118 70.042 21.5714 70.5574 22.1296C71.0728 22.6878 71.7637 22.9669 72.6299 22.9669C73.1811 22.9669 73.6966 22.8433 74.1762 22.596C74.6559 22.3416 75.0424 21.9671 75.336 21.4725C75.6366 20.9779 75.7834 20.3667 75.7762 19.6389Z" fill="white"/>
<path d="M82.8003 26.5706V10.2907H87.3748V26.5706H82.8003ZM85.0983 8.19211C84.4182 8.19211 83.8347 7.96953 83.3479 7.52438C82.8683 7.07216 82.6285 6.53162 82.6285 5.90275C82.6285 5.28095 82.8683 4.74747 83.3479 4.30232C83.8347 3.8501 84.4182 3.62399 85.0983 3.62399C85.7784 3.62399 86.3582 3.8501 86.8379 4.30232C87.3247 4.74747 87.5681 5.28095 87.5681 5.90275C87.5681 6.53162 87.3247 7.07216 86.8379 7.52438C86.3582 7.96953 85.7784 8.19211 85.0983 8.19211Z" fill="white"/>
<path d="M94.4042 4.86406V26.5706H89.8297V4.86406H94.4042Z" fill="white"/>
<path d="M102.937 26.8355C101.684 26.8355 100.55 26.5176 99.533 25.8816C98.5236 25.2386 97.7218 24.2953 97.1276 23.0517C96.5405 21.8011 96.247 20.2678 96.247 18.4518C96.247 16.5864 96.5513 15.0354 97.1598 13.7989C97.7683 12.5553 98.5773 11.6261 99.5867 11.0114C100.603 10.3896 101.716 10.0787 102.926 10.0787C103.85 10.0787 104.619 10.2342 105.235 10.5451C105.858 10.8489 106.359 11.2305 106.738 11.6897C107.125 12.142 107.418 12.5871 107.619 13.0252H107.759V4.86406H112.322V26.5706H107.812V23.9632H107.619C107.404 24.4154 107.1 24.8641 106.706 25.3093C106.32 25.7474 105.815 26.1113 105.192 26.401C104.576 26.6907 103.825 26.8355 102.937 26.8355ZM104.387 23.2425C105.124 23.2425 105.747 23.0447 106.255 22.649C106.771 22.2462 107.164 21.6845 107.436 20.9637C107.716 20.243 107.855 19.3986 107.855 18.4306C107.855 17.4626 107.719 16.6217 107.447 15.9081C107.175 15.1944 106.781 14.6433 106.266 14.2547C105.75 13.866 105.124 13.6717 104.387 13.6717C103.635 13.6717 103.001 13.8731 102.486 14.2759C101.971 14.6786 101.58 15.2368 101.316 15.9505C101.051 16.6641 100.918 17.4908 100.918 18.4306C100.918 19.3774 101.051 20.2148 101.316 20.9425C101.588 21.6633 101.978 22.2285 102.486 22.6384C103.001 23.0411 103.635 23.2425 104.387 23.2425Z" fill="white"/>
<path d="M122.391 26.8885C120.694 26.8885 119.234 26.5494 118.009 25.871C116.792 25.1856 115.855 24.2176 115.196 22.9669C114.537 21.7092 114.208 20.2218 114.208 18.5048C114.208 16.8302 114.537 15.3605 115.196 14.0957C115.855 12.8309 116.782 11.8452 117.977 11.1386C119.18 10.432 120.59 10.0787 122.208 10.0787C123.296 10.0787 124.309 10.2518 125.247 10.5981C126.192 10.9372 127.015 11.4495 127.717 12.1349C128.426 12.8203 128.977 13.6823 129.371 14.721C129.764 15.7526 129.961 16.9609 129.961 18.3458V19.5859H116.034V16.7878H125.655C125.655 16.1377 125.512 15.5619 125.226 15.0602C124.939 14.5585 124.542 14.1663 124.034 13.8837C123.533 13.594 122.949 13.4491 122.283 13.4491C121.589 13.4491 120.973 13.6081 120.436 13.9261C119.907 14.237 119.491 14.6574 119.191 15.1874C118.89 15.7102 118.736 16.2932 118.729 16.9362V19.5965C118.729 20.402 118.879 21.098 119.18 21.6845C119.488 22.2709 119.921 22.7232 120.479 23.0411C121.038 23.3591 121.7 23.5181 122.466 23.5181C122.974 23.5181 123.439 23.4474 123.862 23.3061C124.284 23.1648 124.646 22.9528 124.946 22.6702C125.247 22.3875 125.476 22.0413 125.634 21.6315L129.865 21.907C129.65 22.9104 129.21 23.7866 128.544 24.5356C127.885 25.2775 127.033 25.8569 125.988 26.2738C124.95 26.6836 123.751 26.8885 122.391 26.8885Z" fill="white"/>
<path d="M131.737 26.5706V10.2907H136.172V13.1312H136.344C136.644 12.1208 137.149 11.3576 137.858 10.8418C138.566 10.3189 139.383 10.0575 140.306 10.0575C140.535 10.0575 140.782 10.0716 141.047 10.0999C141.312 10.1282 141.545 10.167 141.745 10.2165V14.2229C141.53 14.1593 141.233 14.1027 140.854 14.0533C140.474 14.0038 140.127 13.9791 139.812 13.9791C139.139 13.9791 138.538 14.1239 138.008 14.4136C137.485 14.6963 137.07 15.092 136.762 15.6007C136.462 16.1095 136.311 16.6959 136.311 17.3601V26.5706H131.737Z" fill="white"/>
<path d="M156.624 14.933L152.436 15.1874C152.365 14.8341 152.211 14.5161 151.974 14.2335C151.738 13.9438 151.427 13.7141 151.04 13.5445C150.661 13.3679 150.206 13.2796 149.676 13.2796C148.968 13.2796 148.37 13.428 147.883 13.7247C147.396 14.0144 147.153 14.403 147.153 14.8906C147.153 15.2792 147.31 15.6078 147.625 15.8763C147.94 16.1448 148.481 16.3603 149.247 16.5228L152.232 17.1164C153.836 17.4414 155.031 17.9643 155.819 18.685C156.606 19.4057 157 20.3525 157 21.5255C157 22.5924 156.681 23.5287 156.044 24.3342C155.414 25.1397 154.548 25.7686 153.446 26.2208C152.35 26.6659 151.087 26.8885 149.655 26.8885C147.472 26.8885 145.732 26.4398 144.436 25.5425C143.148 24.638 142.392 23.4086 142.17 21.8541L146.67 21.6209C146.806 22.278 147.135 22.7797 147.658 23.1259C148.18 23.4651 148.85 23.6347 149.666 23.6347C150.468 23.6347 151.112 23.4827 151.599 23.1789C152.093 22.868 152.343 22.4688 152.35 21.9812C152.343 21.5714 152.168 21.2358 151.824 20.9743C151.481 20.7058 150.951 20.5009 150.235 20.3596L147.378 19.7979C145.768 19.4799 144.569 18.9288 143.781 18.1444C143.001 17.3601 142.611 16.3603 142.611 15.145C142.611 14.0992 142.897 13.1983 143.47 12.4423C144.05 11.6862 144.862 11.1033 145.907 10.6934C146.96 10.2836 148.191 10.0787 149.601 10.0787C151.685 10.0787 153.324 10.5133 154.519 11.3824C155.722 12.2515 156.424 13.435 156.624 14.933Z" fill="white"/>
</svg>
